# AST/ASF file generated using VICON BodyLanguage
# -----------------------------------------------
:version 1.10
:name VICON
:units
  mass 1.0
  length 0.45
  angle deg
:documentation
   .ast/.asf automatically generated from VICON data using
   VICON BodyBuilder and BodyLanguage model FoxedUp or BRILLIANT.MOD
:root
   order TX TY TZ RX RY RZ
   axis XYZ
   position 0 0 0  
   orientation 0 0 0 
:bonedata
  begin
     id 1 
     name lhipjoint
     direction 0.61522 -0.761478 0.204097 
     length 2.55743 
     axis 0 0 0  XYZ
  end
  begin
     id 2 
     name lfemur
     direction 0.34202 -0.939693 0  
     length 7.61162  
     axis 0 0 20  XYZ
    dof rx ry rz
    limits (-160.0 20.0)
           (-70.0 70.0)
           (-60.0 70.0)
  end
  begin
     id 3 
     name ltibia
     direction 0.34202 -0.939693 0   
     length 8.12393   
     axis 0 0 20   XYZ
    dof rx
    limits (-10.0 170.0)
  end
  begin
     id 4 
     name lfoot
     direction 0.0841971 -0.23133 0.969225   
     length 2.3572   
     axis -90 7.62852e-016 20   XYZ
    dof rx rz
    limits (-45.0 90.0)
           (-70.0 20.0)
  end
  begin
     id 5 
     name ltoes
     direction 1.53562e-011 -4.22209e-011 1   
     length 1.17993   
     axis -90 7.62852e-016 20   XYZ
    dof rx
    limits (-90.0 20.0)
  end
  begin
     id 6 
     name rhipjoint
     direction -0.625247 -0.75382 0.202044   
     length 2.58341  
     axis 0 0 0  XYZ 
  end
  begin
     id 7 
     name rfemur
     direction -0.34202 -0.939693 0   
     length 7.42147   
     axis 0 0 -20   XYZ
    dof rx ry rz
    limits (-160.0 20.0)
           (-70.0 70.0)
           (-70.0 60.0)
  end
  begin
     id 8 
     name rtibia
     direction -0.34202 -0.939693 0   
     length 8.20893   
     axis 0 0 -20   XYZ
    dof rx
    limits (-10.0 170.0)
 end
 begin
     id 9 
     name rfoot
     direction -0.124331 -0.341598 0.931586   
     length 2.45604  
     axis -90 -7.62852e-016 -20   XYZ
    dof rx rz
    limits (-45.0 90.0)
           (-20.0 70.0)
  end
  begin
     id 10 
     name rtoes
     direction -1.5353e-011 -4.2199e-011 1   
     length 1.21323   
     axis -90 -7.62852e-016 -20   XYZ
    dof rx
    limits (-90.0 20.0)
  end
  begin
     id 11 
     name lowerback
     direction -0.0218484 0.994884 -0.0986303   
     length 2.00523   
     axis 0 0 0   XYZ
    dof rx ry rz
    limits (-20.0 45.0)
           (-30.0 30.0)
           (-30.0 30.0)
  end
  begin
     id 12 
     name upperback
     direction -0.0097305 0.999717 -0.0217111   
     length 2.01352   
     axis 0 0 0   XYZ
    dof rx ry rz
    limits (-20.0 45.0)
           (-30.0 30.0)
           (-30.0 30.0)
  end
  begin
     id 13 
     name thorax
     direction -0.000928262 0.999699 0.0245198   
     length 2.02938   
     axis 0 0 0   XYZ
    dof rx ry rz
    limits (-20.0 45.0)
           (-30.0 30.0)
           (-30.0 30.0)
  end
  begin
     id 14 
     name lowerneck
     direction -0.0307979 0.998024 0.0547665   
     length 1.77263   
     axis 0 0 0   XYZ
    dof rx ry rz
    limits (-20.0 45.0)
           (-30.0 30.0)
           (-30.0 30.0)
  end
  begin
     id 15 
     name upperneck
     direction 0.0531587 0.996611 -0.0627734   
     length 1.77971   
     axis 0 0 0   XYZ
    dof rx ry rz
    limits (-20.0 45.0)
           (-30.0 30.0)
           (-30.0 30.0)
  end
  begin
     id 16
     name head
     direction 0.0213833 0.999404 -0.0271147  
     length 1.78263  
     axis 0 0 0   XYZ
    dof rx ry rz
    limits (-20.0 45.0)
           (-30.0 30.0)
           (-30.0 30.0)
  end
  begin
     id 17 
     name lclavicle
     direction 0.940017 0.332249 -0.0773233  
     length 3.73315  
     axis 0 0 0   XYZ
    dof ry rz
    limits (-20.0 10.0)
           (0.0 20.0)
  end
  begin
     id 18 
     name lhumerus
     direction 1 -4.48944e-011 7.52288e-028   
     length 5.40188   
     axis 180 -30 -90   XYZ
    dof rx ry rz
    limits (-60.0 90.0)
           (-90.0 90.0)
           (-90.0 90.0)
  end
  begin
     id 19
     name lradius
     direction 1 -4.48988e-011 1.48381e-027   
     length 3.68559   
     axis 180 -30 -90   XYZ
    dof rx
    limits (-10.0 170.0)
  end
  begin
     id 20
     name lwrist
     direction 1 -4.48925e-011 2.56952e-028   
     length 1.84279   
     axis -5.12785e-016 90 90   XYZ
    dof ry
    limits (-180.0 0.0)
 end
  begin
     id 21 
     name lhand
     direction 1 -4.49009e-011 5.13905e-028   
     length 0.61753   
     axis -3.27915e-016 90 90   XYZ
    dof rx rz
    limits (-90.0 90.0)
           (-45.0 45.0)
  end
  begin
     id 22 
     name lfingers
     direction 1 -4.49012e-011 1.02781e-027   
     length 0.497868   
     axis -6.5583e-016 90 90   XYZ
    dof rx
    limits (0.0 90.0)
  end
  begin
     id 23
     name lthumb
     direction 0.707107 -6.34987e-011 0.707107   
     length 0.714842   
     axis -90 45 2.85299e-015   XYZ
    dof rx rz
    limits (-45.0 45.0)
           (-45.0 45.0)
  end
  begin
     id 24 
     name rclavicle
     direction -0.9009 0.425937 -0.0834057   
     length 3.27864  
     axis 0 0 0   XYZ 
    dof ry rz
    limits (-10.0 20.0)
           (-20.0 0.0)
  end
  begin
     id 25 
     name rhumerus
     direction -1 -4.48953e-011 -1.03572e-027  
     length 6.1067   
     axis 180 30 90   XYZ
    dof rx ry rz
    limits (-90.0 60.0)
           (-90.0 90.0)
           (-90.0 90.0)
  end
  begin
     id 26 
     name rradius
     direction -1 -4.48975e-011 1.20742e-027   
     length 3.63052   
     axis 180 30 90   XYZ
    dof rx
    limits (-10.0 170.0)
  end
  begin
     id 27 
     name rwrist
     direction -1 -4.49017e-011 2.56952e-028   
     length 1.81526   
     axis -5.12785e-016 -90 -90   XYZ
    dof ry
    limits (-180.0 0.0)
  end
  begin
     id 28
     name rhand
     direction -1 -4.48832e-011 5.13905e-028   
     length 0.583848   
     axis -3.27915e-016 -90 -90   XYZ
    dof rx rz
    limits (-90.0 90.0)
           (-45.0 45.0)
  end
  begin
     id 29
     name rfingers
     direction -1 -4.48729e-011 1.02781e-027   
     length 0.470713   
     axis -6.5583e-016 -90 -90   XYZ
    dof rx
    limits (0.0 90.0)
  end
  begin
     id 30
     name rthumb
     direction -0.707107 -6.34964e-011 0.707107   
     length 0.675852   
     axis -90 -45 -2.85299e-015   XYZ
    dof rx rz
    limits (-45.0 45.0)
           (-45.0 45.0)
  end
:hierarchy
  begin
    root lhipjoint rhipjoint lowerback
    lhipjoint lfemur
    lfemur ltibia
    ltibia lfoot
    lfoot ltoes
    rhipjoint rfemur
    rfemur rtibia
    rtibia rfoot
    rfoot rtoes
    lowerback upperback
    upperback thorax
    thorax lowerneck lclavicle rclavicle
    lowerneck upperneck
    upperneck head
    lclavicle lhumerus
    lhumerus lradius
    lradius lwrist
    lwrist lhand lthumb
    lhand lfingers
    rclavicle rhumerus
    rhumerus rradius
    rradius rwrist
    rwrist rhand rthumb
    rhand rfingers
  end

#!OML:ASF F:\VICON\USERDATA\INSTALL\rory3\rory3.ASF
:FULLY-SPECIFIED
:DEGREES
78
root 0.848311 20.0156 -2.80203 -1.70821 -4.82141 1.94157
lowerback 1.2544 -0.0407456 0.717153
upperback -0.961574 -0.0324836 0.485623
thorax -1.68787 -0.0217596 0.0963431
lowerneck -13.9321 0.326849 -6.40049
upperneck 10.4849 1.25409 3.33135
head 5.37635 0.596961 2.1935
rclavicle -5.86415e-015 4.37326e-015
rhumerus -25.4259 -18.7752 -55.8545
rradius 60.8258
rwrist -20.008
rhand -38.183 0.0784192
rfingers 7.12502
rthumb -11.2158 -29.6018
lclavicle -5.86415e-015 4.37326e-015
lhumerus -29.4981 24.1854 55.687
lradius 49.0867
lwrist 31.0003
lhand -23.1662 24.5434
lfingers 7.12502
lthumb 3.28259 54.4979
rfemur -7.93522 21.5938 12.6759
rtibia 31.8626
rfoot -5.56473 -2.96825
rtoes -10.3737
lfemur -5.8691 -4.93192 -16.6426
ltibia 29.1934
lfoot 3.87698 0.512749
ltoes -10.9569
79
root 0.84225 20.0563 -2.83218 -1.90428 -4.71568 1.80925
lowerback 1.58101 -0.068207 0.572976
upperback -0.947471 -0.0681265 0.536482
thorax -1.85671 -0.0377746 0.230661
lowerneck -13.7479 0.304207 -6.34768
upperneck 10.5508 1.20003 3.33663
head 5.36947 0.571111 2.18134
rclavicle -1.14798e-014 -6.36111e-015
rhumerus -23.7598 -18.9009 -54.35
rradius 61.4559
rwrist -18.739
rhand -37.3571 -0.309742
rfingers 7.12502
rthumb -10.4192 -30.0316
lclavicle -1.14798e-014 -6.36111e-015
lhumerus -27.9127 23.8152 54.5503
lradius 50.3798
lwrist 31.0337
lhand -23.7644 24.0767
lfingers 7.12502
lthumb 2.70486 54.0393
rfemur -7.83008 21.976 12.5307
rtibia 31.9209
rfoot -6.50129 -5.06521
rtoes -9.14938
lfemur -5.52578 -4.88354 -16.0925
ltibia 29.345
lfoot 2.12744 2.2239
ltoes -12.1758
80
root 0.835761 20.0889 -2.86585 -2.13299 -4.59737 1.43019
lowerback 1.90996 -0.0877375 0.713576
upperback -0.843699 -0.0865864 0.61211
thorax -1.93517 -0.0482962 0.230393
lowerneck -13.6224 0.262877 -6.29235
upperneck 10.5346 1.11017 3.45168
head 5.34743 0.537392 2.2002
rclavicle 1.48592e-014 -4.77083e-015
rhumerus -21.9526 -18.7543 -53.0747
rradius 62.2091
rwrist -19.0269
rhand -38.6335 0.24012
rfingers 7.12502
rthumb -11.6502 -29.416
lclavicle 1.48592e-014 -4.77083e-015
lhumerus -26.0087 23.5089 53.4238
lradius 51.5347
lwrist 30.8197
lhand -24.4738 23.9526
lfingers 7.12502
lthumb 2.01978 53.9228
rfemur -7.6258 22.2342 12.6912
rtibia 31.9695
rfoot -7.14794 -6.4611
rtoes -7.61097
lfemur -5.15278 -4.81837 -15.2315
ltibia 29.4911
lfoot 0.774023 3.40089
ltoes -13.0636
81
root 0.829287 20.1116 -2.89637 -2.50029 -4.47944 0.992418
lowerback 2.3366 -0.0868315 0.952962
upperback -0.73455 -0.0726089 0.674295
thorax -2.06311 -0.0441072 0.160064
lowerneck -13.3499 0.235228 -6.30854
upperneck 10.4915 1.02732 3.68981
head 5.29103 0.512308 2.26874
rclavicle -2.45251e-014 -7.55382e-015
rhumerus -20.2744 -18.5819 -51.657
rradius 62.8778
rwrist -18.9892
rhand -39.5377 0.876498
rfingers 7.12502
rthumb -12.5221 -28.7283
lclavicle -2.45251e-014 -7.55382e-015
lhumerus -23.95 23.4944 52.2665
lradius 52.389
lwrist 29.9659
lhand -24.8156 23.9446
lfingers 7.12502
lthumb 1.6897 53.9177
rfemur -7.22731 22.5018 12.9823
rtibia 32.0147
rfoot -7.524 -7.67079
rtoes -6.45218
lfemur -4.63723 -4.93765 -14.3147
ltibia 29.6539
lfoot -0.183792 4.588
ltoes -12.6699
82
root 0.830771 20.1186 -2.92771 -2.98997 -4.13092 0.90524
lowerback 2.90353 -0.179099 0.914324
upperback -0.618874 -0.190157 0.662167
thorax -2.26325 -0.102684 0.175805
lowerneck -12.9578 0.217729 -6.40171
upperneck 10.3029 0.972277 3.88769
head 5.16813 0.495098 2.33677
rclavicle -1.47598e-014 -1.98785e-014
rhumerus -18.5485 -18.4564 -50.0985
rradius 63.479
rwrist -18.3577
rhand -39.6242 1.1707
rfingers 7.12502
rthumb -12.6055 -28.429
lclavicle -1.47598e-014 -1.98785e-014
lhumerus -21.9064 23.5056 51.1333
lradius 53.1903
lwrist 29.3329
lhand -24.6467 23.7793
lfingers 7.12502
lthumb 1.85276 53.751
rfemur -6.64901 22.3793 12.8533
rtibia 32.1043
rfoot -7.70738 -8.7613
rtoes -5.69926
lfemur -4.05281 -5.19109 -13.8354
ltibia 29.8393
lfoot -0.399745 5.57692
ltoes -11.7258
83
root 0.826107 20.1125 -2.96042 -3.50217 -3.82796 1.02373
lowerback 3.46206 -0.255325 0.549414
upperback -0.45813 -0.301969 0.627103
thorax -2.41048 -0.153851 0.352129
lowerneck -12.5709 0.216539 -6.40656
upperneck 10.0701 0.941691 3.94878
head 5.0326 0.483791 2.34886
rclavicle 8.05078e-015 -2.90226e-014
rhumerus -16.6958 -18.4008 -48.53
rradius 64.0367
rwrist -17.6251
rhand -40.1352 1.66124
rfingers 7.12502
rthumb -13.0982 -27.9074
lclavicle 8.05078e-015 -2.90226e-014
lhumerus -19.894 22.8772 49.9105
lradius 54.0341
lwrist 29.4376
lhand -25.0495 23.5303
lfingers 7.12502
lthumb 1.46375 53.5051
rfemur -6.1267 22.33 12.5196
rtibia 32.2958
rfoot -7.81953 -10.1216
rtoes -5.28826
lfemur -3.49852 -5.2318 -13.5194
ltibia 30.1021
lfoot 0.103344 5.9732
ltoes -10.5328
84
root 0.818792 20.0916 -2.99182 -3.91228 -3.59538 0.975691
lowerback 3.88799 -0.294589 0.34579
upperback -0.323692 -0.361417 0.602424
thorax -2.51026 -0.180915 0.44632
lowerneck -12.2092 0.229705 -6.38841
upperneck 9.94795 0.91595 4.09926
head 4.93509 0.480518 2.38716
rclavicle -5.66536e-015 2.90226e-014
rhumerus -14.8253 -18.582 -46.9625
rradius 64.4698
rwrist -16.772
rhand -40.6136 1.95421
rfingers 7.12502
rthumb -13.5592 -27.5843
lclavicle -5.66536e-015 2.90226e-014
lhumerus -17.7469 22.3766 48.5927
lradius 54.682
lwrist 29.2939
lhand -25.861 22.7352
lfingers 7.12502
lthumb 0.680042 52.7138
rfemur -5.77279 22.3138 12.3365
rtibia 32.5876
rfoot -7.65391 -11.5127
rtoes -5.17266
lfemur -3.11984 -5.35374 -12.9964
ltibia 30.5503
lfoot 0.626141 5.92572
ltoes -8.94516
85
root 0.811953 20.0513 -3.02234 -4.19097 -3.40756 0.902085
lowerback 4.23671 -0.302842 0.221201
upperback -0.269197 -0.377727 0.557358
thorax -2.64946 -0.18759 0.472928
lowerneck -11.8609 0.190105 -6.38888
upperneck 9.89751 0.818564 4.2852
head 4.86581 0.442701 2.43521
rclavicle -1.30452e-014 3.97569e-015
rhumerus -12.9412 -18.932 -45.3663
rradius 64.7847
rwrist -16.0394
rhand -39.8792 0.943468
rfingers 7.12502
rthumb -12.8513 -28.6409
lclavicle -1.30452e-014 3.97569e-015
lhumerus -15.4192 22.1802 47.3309
lradius 55.1882
lwrist 28.9171
lhand -26.4308 22.3557
lfingers 7.12502
lthumb 0.129677 52.3354
rfemur -5.62727 22.3361 12.1138
rtibia 32.9907
rfoot -7.68082 -12.7342
rtoes -3.5821
lfemur -2.94783 -5.64614 -12.461
ltibia 31.2192
lfoot 1.09498 5.69776
ltoes -7.82779
86
root 0.804159 19.9937 -3.05232 -4.42107 -3.24862 0.792197
lowerback 4.50742 -0.321119 0.150126
upperback -0.190432 -0.405419 0.535101
thorax -2.71991 -0.20053 0.493226
lowerneck -11.5582 0.135717 -6.43203
upperneck 9.80135 0.719518 4.41339
head 4.79044 0.399043 2.472
rclavicle 6.07536e-015 8.74653e-015
rhumerus -10.9534 -19.152 -43.8047
rradius 65.1058
rwrist -15.3379
rhand -39.2904 -0.00275163
rfingers 7.12502
rthumb -12.2837 -29.622
lclavicle 6.07536e-015 8.74653e-015
lhumerus -13.0444 21.9543 46.0858
lradius 55.7185
lwrist 28.923
lhand -26.8145 22.4982
lfingers 7.12502
lthumb -0.240908 52.4778
rfemur -5.54663 22.3727 11.921
rtibia 33.4609
rfoot -7.56602 -13.3996
rtoes -3.01542
lfemur -2.8927 -5.83821 -11.8603
ltibia 32.077
lfoot 1.77216 5.12706
ltoes -7.99558
87
root 0.795833 19.9242 -3.08285 -4.60467 -3.08686 0.729412
lowerback 4.66476 -0.318993 0.0354187
upperback -0.0755562 -0.410209 0.480857
thorax -2.68954 -0.201835 0.502699
lowerneck -11.3112 0.0765731 -6.424
upperneck 9.71542 0.606402 4.56474
head 4.72854 0.352016 2.50742
rclavicle 1.37286e-014 2.5842e-015
rhumerus -9.05168 -19.3949 -42.1955
rradius 65.4823
rwrist -14.6129
rhand -40.0095 0.0509571
rfingers 7.12502
rthumb -12.977 -29.5255
lclavicle 1.37286e-014 2.5842e-015
lhumerus -10.5101 21.8366 44.8501
lradius 56.191
lwrist 29.0926
lhand -26.8711 22.6727
lfingers 7.12502
lthumb -0.295564 52.6523
rfemur -5.53573 22.4783 11.6659
rtibia 33.9778
rfoot -7.10198 -13.8504
rtoes -2.59709
lfemur -2.98284 -5.992 -11.2926
ltibia 33.0766
lfoot 2.48512 4.24956
ltoes -8.58014
88
root 0.791768 19.8457 -3.10888 -4.75807 -2.84813 0.768964
lowerback 4.74134 -0.32111 -0.117179
upperback 0.0591908 -0.424974 0.359136
thorax -2.5935 -0.208278 0.464125
lowerneck -11.2368 0.00350674 -6.41488
upperneck 9.75976 0.470715 4.81832
head 4.73656 0.300955 2.57573
rclavicle 7.16867e-015 -2.18663e-015
rhumerus -7.18302 -19.9047 -40.6039
rradius 65.8768
rwrist -13.9591
rhand -40.8471 0.217377
rfingers 7.12502
rthumb -13.7842 -29.306
lclavicle 7.16867e-015 -2.18663e-015
lhumerus -7.89298 21.8111 43.6193
lradius 56.6143
lwrist 29.1689
lhand -26.8558 22.8689
lfingers 7.12502
lthumb -0.280776 52.8485
rfemur -5.56292 22.5355 11.2589
rtibia 34.5351
rfoot -6.45412 -14.1081
rtoes -1.96769
lfemur -3.15717 -6.322 -10.8882
ltibia 34.1778
lfoot 3.01595 3.16558
ltoes -8.77762
89
root 0.790811 19.7552 -3.13088 -4.90131 -2.51584 0.759757
lowerback 4.83752 -0.375609 -0.162632
upperback 0.163387 -0.503389 0.241467
thorax -2.5402 -0.247701 0.374335
lowerneck -11.1437 -0.0324804 -6.47726
upperneck 9.74615 0.389296 5.13387
head 4.72036 0.277956 2.67834
rclavicle -9.54788e-015 -9.54166e-015
rhumerus -5.23368 -20.4701 -39.0936
rradius 66.2262
rwrist -13.5247
rhand -41.1374 0.429472
rfingers 7.12502
rthumb -14.0641 -29.0747
lclavicle -9.54788e-015 -9.54166e-015
lhumerus -5.37345 21.7738 42.3039
lradius 56.9878
lwrist 29.1705
lhand -26.9685 23.0255
lfingers 7.12502
lthumb -0.389639 53.0049
rfemur -5.54588 22.4905 10.8903
rtibia 35.1133
rfoot -5.76673 -13.9265
rtoes -2.64582
lfemur -3.36655 -6.90073 -10.4941
ltibia 35.356
lfoot 3.45063 1.99469
ltoes -8.75987
90
root 0.78642 19.6484 -3.15747 -4.944 -2.21006 0.666073
lowerback 4.89873 -0.44792 -0.170972
upperback 0.233017 -0.602086 0.173414
thorax -2.50279 -0.297303 0.316091
lowerneck -10.9484 -0.0415068 -6.47307
upperneck 9.57315 0.349477 5.29739
head 4.63645 0.267692 2.72302
rclavicle 7.21837e-015 0
rhumerus -3.14977 -21.095 -37.67
rradius 66.5301
rwrist -13.143
rhand -41.3829 0.476686
rfingers 7.12502
rthumb -14.3006 -29.0109
lclavicle 7.21837e-015 0
lhumerus -2.74147 22.0662 41.0645
lradius 57.2402
lwrist 29.0208
lhand -26.9125 23.1038
lfingers 7.12502
lthumb -0.335562 53.0833
rfemur -5.68345 22.6103 10.598
rtibia 35.7232
rfoot -5.11937 -13.4397
rtoes -3.09103
lfemur -3.72798 -7.45691 -9.9738
ltibia 36.5723
lfoot 3.9773 0.734325
ltoes -9.03829
